<svg width="61" height="60" viewBox="0 0 61 60" fill="none" xmlns="http://www.w3.org/2000/svg">
<g clip-path="url(#clip0_20_4114)">
<path fill-rule="evenodd" clip-rule="evenodd" d="M0.855591 29.5165C0.855591 13.2826 14.3444 0.126953 30.9805 0.126953C47.6231 0.126953 61.1054 13.2826 61.1054 29.5191C61.1054 45.7543 47.6231 58.9191 30.9805 58.9191C14.3444 58.9165 0.856889 45.7517 0.856889 29.5165" fill="#EA2427"/>
<path fill-rule="evenodd" clip-rule="evenodd" d="M16.7558 23.5687C16.7558 22.5083 16.3755 21.6018 15.6175 20.8557C14.8713 20.0966 13.9628 19.7196 12.8712 19.7196H8.99969V23.5674C8.99969 24.6266 9.36569 25.5396 10.112 26.3105C10.4707 26.6786 10.9005 26.9693 11.375 27.1646C11.8494 27.36 12.3586 27.4559 12.8712 27.4466C13.9628 27.4466 14.8713 27.0709 15.6175 26.3118C16.3755 25.5396 16.7545 24.6266 16.7545 23.5674L16.7558 23.5687ZM8.98152 16.6687V17.167H12.8725C14.7025 17.167 16.273 17.7931 17.5734 19.0426C18.8882 20.2883 19.5488 21.7935 19.5488 23.5687C19.5488 25.3426 18.8869 26.8596 17.5734 28.1235C16.2574 29.3679 14.6948 29.9992 12.8712 29.9992C11.0542 29.9992 9.49029 29.3679 8.17684 28.1235C6.86859 26.8596 6.22095 25.3413 6.22095 23.5674V13.9766C6.97371 13.9766 7.62654 14.2453 8.15607 14.78C8.70637 15.2979 8.98022 15.9357 8.98022 16.6687H8.98152ZM30.7274 27.3918V23.544C30.7274 22.4848 30.3484 21.5783 29.5891 20.8192C28.8442 20.047 27.9356 19.6648 26.8506 19.6648C25.7643 19.6648 24.8428 20.047 24.0901 20.8192C23.7298 21.1738 23.4449 21.5983 23.2528 22.0669C23.0607 22.5355 22.9654 23.0385 22.9726 23.5453C22.9726 24.5979 23.3451 25.5096 24.0901 26.2687C24.8428 27.0148 25.7643 27.3918 26.8493 27.3918H30.7274ZM33.5178 23.544V29.9444H26.8493C25.0323 29.9444 23.4619 29.3183 22.1484 28.0818C20.8467 26.8296 20.1938 25.3192 20.1938 23.544C20.1938 21.77 20.8467 20.2518 22.1484 19.0074C23.4632 17.7448 25.0323 17.1122 26.8493 17.1122C28.6664 17.1122 30.2303 17.7448 31.545 19.0074C32.865 20.2518 33.5178 21.77 33.5178 23.544ZM33.5191 43.9674H30.7598V31.3335C31.5191 31.3335 32.1589 31.6022 32.7027 32.137C33.2452 32.66 33.5191 33.2926 33.5191 34.0322V36.4126H37.1739C37.6853 36.4208 38.1928 36.3224 38.6643 36.1235C39.1359 35.9245 39.5613 35.6295 39.9137 35.257C40.673 34.4913 40.8092 34.1535 41 33.3057C41 33.3057 41.1233 31.3335 43.8112 31.3335V32.5335C43.8112 33.56 43.5685 34.5305 43.0844 35.4357C42.6146 36.3357 41.9406 37.1118 41.1168 37.7013C41.9437 38.2905 42.6187 39.0694 43.0857 39.9735C43.5643 40.8543 43.8138 41.8422 43.8112 42.8457V43.9674H41.0468V42.8457C41.0468 41.7983 40.673 40.8853 39.9137 40.1196C39.5614 39.7475 39.1361 39.4528 38.6648 39.2541C38.1934 39.0554 37.6863 38.9571 37.1752 38.9653H33.5191V43.9674ZM55.3519 37.734C55.3519 38.78 54.9729 39.6931 54.2137 40.4587C53.4609 41.2296 52.5459 41.5179 51.4752 41.5179C50.3888 41.5179 49.4674 41.2361 48.7146 40.477C47.9566 39.7048 47.5777 38.7931 47.5777 37.734V34.0322C47.5777 33.2926 47.309 32.66 46.76 32.137C46.5079 31.8772 46.2056 31.6719 45.8717 31.5338C45.5379 31.3956 45.1794 31.3275 44.8184 31.3335V37.734C44.8184 39.5079 45.4712 41.0261 46.7782 42.2887C48.0799 43.5409 49.6439 44.1657 51.4739 44.1657C53.2909 44.1657 54.8548 43.5396 56.1553 42.2887C57.4635 41.0261 58.1112 39.5066 58.1112 37.734V31.3335C57.7483 31.3291 57.3881 31.398 57.0522 31.536C56.7162 31.674 56.4112 31.8784 56.1553 32.137C55.897 32.379 55.692 32.6726 55.5534 32.999C55.4148 33.3254 55.3458 33.6774 55.3506 34.0322V37.734H55.3519Z" fill="#F7FAFB"/>
</g>
<defs>
<clipPath id="clip0_20_4114">
<rect width="61" height="60" fill="white"/>
</clipPath>
</defs>
</svg>
