<svg width="16" height="15" viewBox="0 0 16 15" fill="none" xmlns="http://www.w3.org/2000/svg">
<g clip-path="url(#clip0_47_2278)">
<path d="M14.3091 6.89925H13.5741C13.1593 6.89925 12.8241 7.1685 12.8241 7.5C12.8241 7.83075 13.1593 8.09925 13.5741 8.09925H14.3091C14.7231 8.09925 15.0591 7.8315 15.0591 7.5C15.0591 7.16925 14.7223 6.89925 14.3091 6.89925ZM7.55908 3.375C7.01691 3.37332 6.47975 3.47886 5.97852 3.68557C5.47729 3.89227 5.02189 4.19605 4.63851 4.57943C4.25514 4.96281 3.95135 5.41821 3.74465 5.91944C3.53795 6.42067 3.4324 6.95783 3.43408 7.5C3.43408 9.78825 5.27083 11.625 7.55908 11.625C9.84658 11.625 11.6841 9.78825 11.6841 7.5C11.6841 5.21175 9.84583 3.375 7.55908 3.375ZM7.55908 10.5C5.90083 10.5 4.55908 9.15675 4.55908 7.5C4.55908 5.84175 5.90083 4.5 7.55908 4.5C8.35473 4.5 9.11779 4.81607 9.6804 5.37868C10.243 5.94129 10.5591 6.70435 10.5591 7.5C10.5591 8.29565 10.243 9.05871 9.6804 9.62132C9.11779 10.1839 8.35473 10.5 7.55908 10.5ZM2.30908 7.5C2.30908 7.16925 1.97233 6.89925 1.55908 6.89925H0.809082C0.394332 6.89925 0.059082 7.1685 0.059082 7.5C0.059082 7.83075 0.394332 8.09925 0.809082 8.09925H1.55908C1.97233 8.09925 2.30908 7.83075 2.30908 7.5ZM7.55908 2.25C7.88983 2.25 8.15833 1.91475 8.15833 1.5V0.75C8.15833 0.33525 7.88983 0 7.55908 0C7.22758 0 6.95833 0.33525 6.95833 0.75V1.5C6.95833 1.91475 7.22758 2.25 7.55908 2.25ZM7.55908 12.75C7.22758 12.75 6.95833 13.0852 6.95833 13.5V14.25C6.95833 14.6648 7.22758 15 7.55908 15C7.88983 15 8.15833 14.6648 8.15833 14.25V13.5C8.15833 13.0852 7.88983 12.75 7.55908 12.75ZM13.0828 2.8245C13.3761 2.53125 13.4233 2.10375 13.1893 1.86975C12.9553 1.63575 12.5271 1.68375 12.2353 1.977L11.7103 2.50125C11.4171 2.7945 11.3698 3.222 11.6038 3.456C11.8378 3.69 12.2661 3.642 12.5586 3.34875L13.0828 2.8245ZM2.55958 11.6497L2.03458 12.1755C1.74133 12.4687 1.69408 12.8947 1.92808 13.1287C2.16208 13.3627 2.59033 13.3162 2.88208 13.023L3.40708 12.4988C3.70033 12.2055 3.74758 11.778 3.51358 11.5433C3.27958 11.3085 2.85133 11.358 2.55958 11.6497ZM2.88283 1.97625C2.59033 1.683 2.16208 1.635 1.92808 1.869C1.69408 2.103 1.74208 2.53125 2.03383 2.8245L2.55883 3.34875C2.85208 3.642 3.27883 3.69 3.51283 3.456C3.74683 3.222 3.69958 2.79375 3.40708 2.50125L2.88283 1.97625ZM11.7096 12.4995L12.2346 13.0238C12.5278 13.317 12.9546 13.3635 13.1886 13.131C13.4226 12.897 13.3753 12.4688 13.0821 12.1763L12.5578 11.652C12.2646 11.3588 11.8371 11.3108 11.6023 11.5448C11.3676 11.7787 11.4163 12.2063 11.7096 12.4995Z" fill="#333333"/>
</g>
<defs>
<clipPath id="clip0_47_2278">
<rect width="15" height="15" fill="white" transform="translate(0.059082)"/>
</clipPath>
</defs>
</svg>
