<svg width="20" height="20" viewBox="0 0 20 20" fill="none" xmlns="http://www.w3.org/2000/svg">
<path d="M5.94753 9.89873C6.36566 10.3919 6.62297 11.0459 6.62297 11.7535C6.62297 13.351 5.3257 14.6482 3.72823 14.6482C2.13077 14.6482 0.833496 13.351 0.833496 11.7535C0.833496 10.156 2.13077 8.85876 3.72823 8.85876" stroke="#7A7A7A" stroke-miterlimit="10" stroke-linecap="round" stroke-linejoin="round"/>
<path d="M16.2719 8.85876C17.8694 8.85876 19.1667 10.156 19.1667 11.7535C19.1667 13.351 17.8694 14.6482 16.2719 14.6482C14.6745 14.6482 13.3772 13.351 13.3772 11.7535C13.3772 11.2603 13.4951 10.7993 13.7203 10.3919" stroke="#7A7A7A" stroke-miterlimit="10" stroke-linecap="round" stroke-linejoin="round"/>
<path d="M3.72803 11.7544L6.62276 5H7.58768" stroke="#7A7A7A" stroke-miterlimit="10" stroke-linecap="round" stroke-linejoin="round"/>
<path d="M9.51739 11.7535H16.2718L13.377 6.92896H5.79712L9.51739 11.7535Z" stroke="#7A7A7A" stroke-miterlimit="10" stroke-linecap="round" stroke-linejoin="round"/>
<path d="M13.3772 6.92896L10.5039 10.5206" stroke="#7A7A7A" stroke-miterlimit="10" stroke-linecap="round" stroke-linejoin="round"/>
<path d="M12.4124 5.69568H14.3743" stroke="#7A7A7A" stroke-miterlimit="10" stroke-linecap="round" stroke-linejoin="round"/>
</svg>
