<svg width="20" height="15" viewBox="0 0 20 15" fill="none" xmlns="http://www.w3.org/2000/svg">
<path d="M8.4232 3.3967C8.12442 3.31521 7.62193 3.01643 7.40463 2.89421C6.68484 2.51394 5.84282 2.43245 5.01439 2.66333C3.64271 3.03001 2.40685 4.14365 1.63273 5.7462C0.261058 8.51671 0.695649 11.6947 2.62414 12.9984C3.1538 13.3515 3.76494 13.5281 4.40324 13.5281C4.70202 13.5281 4.98722 13.4873 5.28601 13.4058C6.60336 13.0527 7.81206 12.007 8.59975 10.5131C9.52326 10.1328 10.5826 10.1193 11.5197 10.4724C12.3073 11.9391 13.4753 12.9577 14.7655 13.2972C15.7026 13.5281 16.6261 13.3923 17.3866 12.8762C19.288 11.586 19.7361 8.46239 18.3916 5.75978C17.6039 4.19797 16.3952 3.08434 15.0507 2.73123C14.2494 2.52752 13.4617 2.58184 12.7555 2.92137C12.5111 3.0436 12.0222 3.45102 10.1616 3.45102V1.3324" stroke="#7A7A7A" stroke-miterlimit="10" stroke-linecap="round" stroke-linejoin="round"/>
<path d="M12.7551 6.60271C12.6193 6.87433 12.5378 7.17311 12.5378 7.49905C12.5378 8.58553 13.4206 9.48187 14.4935 9.48187C15.5664 9.48187 16.4492 8.58553 16.4492 7.49905C16.4492 6.41258 15.5664 5.51624 14.4935 5.51624" stroke="#7A7A7A" stroke-miterlimit="10" stroke-linecap="round" stroke-linejoin="round"/>
<path d="M5.28589 5.84265V9.36011" stroke="#7A7A7A" stroke-miterlimit="10" stroke-linecap="round" stroke-linejoin="round"/>
<path d="M3.52026 7.60791H7.05131" stroke="#7A7A7A" stroke-miterlimit="10" stroke-linecap="round" stroke-linejoin="round"/>
</svg>
