<svg width="20" height="20" viewBox="0 0 20 20" fill="none" xmlns="http://www.w3.org/2000/svg">
<path d="M13.6635 1.64185C13.6635 1.64185 18.1421 11.9038 10.0549 11.9038H9.84546C1.7583 11.92 6.23685 1.64185 6.23685 1.64185" stroke="#7A7A7A" stroke-miterlimit="10" stroke-linecap="round" stroke-linejoin="round"/>
<path d="M9.9582 2.44644C12.0135 2.44644 13.6796 2.08581 13.6796 1.64094C13.6796 1.19608 12.0135 0.835449 9.9582 0.835449C7.90294 0.835449 6.23682 1.19608 6.23682 1.64094C6.23682 2.08581 7.90294 2.44644 9.9582 2.44644Z" stroke="#7A7A7A" stroke-miterlimit="10" stroke-linecap="round" stroke-linejoin="round"/>
<path d="M9.9583 19.1683C12.3961 19.1683 14.3724 18.6922 14.3724 18.105C14.3724 17.5178 12.3961 17.0417 9.9583 17.0417C7.52045 17.0417 5.54419 17.5178 5.54419 18.105C5.54419 18.6922 7.52045 19.1683 9.9583 19.1683Z" stroke="#7A7A7A" stroke-miterlimit="10" stroke-linecap="round" stroke-linejoin="round"/>
<path d="M9.95825 17.7517V11.9199" stroke="#7A7A7A" stroke-miterlimit="10" stroke-linecap="round" stroke-linejoin="round"/>
<path d="M13.148 6.07166C13.3413 7.68264 13.0675 9.47084 11.1826 10.0025" stroke="#7A7A7A" stroke-miterlimit="10" stroke-linecap="round" stroke-linejoin="round"/>
</svg>
