<svg width="20" height="18" viewBox="0 0 20 18" fill="none" xmlns="http://www.w3.org/2000/svg">
<path d="M12.4394 2.67944L6.89355 8.23921" stroke="#7A7A7A" stroke-miterlimit="10" stroke-linecap="round"/>
<path d="M13.1067 4.1936L10.8828 6.41751" stroke="#7A7A7A" stroke-miterlimit="10" stroke-linecap="round"/>
<path d="M8.57547 4.1936L6.35156 6.41751" stroke="#7A7A7A" stroke-miterlimit="10" stroke-linecap="round"/>
<path d="M17.4989 10.286V1.73786C17.4989 1.15408 17.0263 0.667603 16.4286 0.667603H3.55778C2.97401 0.667603 2.48753 1.14018 2.48753 1.73786V10.286L0.833496 15.54H19.1668L17.4989 10.286Z" stroke="#7A7A7A" stroke-miterlimit="10" stroke-linecap="round" stroke-linejoin="round"/>
<path d="M2.4873 10.2841H16.9566" stroke="#7A7A7A" stroke-miterlimit="10" stroke-linecap="round"/>
<path d="M11.4109 12.2325H8.13066L7.96387 13.8727H11.5777L11.4109 12.2325Z" stroke="#7A7A7A" stroke-miterlimit="10" stroke-linecap="round" stroke-linejoin="round"/>
<path d="M17.4989 17.2059H2.50143C1.58406 17.2059 0.833496 16.4553 0.833496 15.538H19.1668C19.1668 16.4553 18.4163 17.2059 17.4989 17.2059Z" stroke="#7A7A7A" stroke-miterlimit="10" stroke-linecap="round" stroke-linejoin="round"/>
</svg>
