<svg width="20" height="20" viewBox="0 0 20 20" fill="none" xmlns="http://www.w3.org/2000/svg">
<path d="M12.4362 12.2496C12.3209 14.8372 10.1123 16.848 7.52465 16.7326C4.937 16.6173 2.92622 14.4087 3.04159 11.821C3.15696 9.23339 5.36553 7.22261 7.95318 7.33798" stroke="#7A7A7A" stroke-miterlimit="10" stroke-linecap="round" stroke-linejoin="round"/>
<path d="M7.72242 18.9088C11.5273 18.9088 14.6118 15.8243 14.6118 12.0194C14.6118 8.2145 11.5273 5.13 7.72242 5.13C3.9175 5.13 0.833008 8.2145 0.833008 12.0194C0.833008 15.8243 3.9175 18.9088 7.72242 18.9088Z" stroke="#7A7A7A" stroke-miterlimit="10" stroke-linecap="round" stroke-linejoin="round"/>
<path d="M12.2715 6.76038L16.771 2.32676C17.4797 1.68397 18.2214 1.35433 18.8642 2.06305C19.507 2.77177 19.029 3.3816 18.3203 4.02439L13.3098 7.91411" stroke="#7A7A7A" stroke-miterlimit="10" stroke-linecap="round" stroke-linejoin="round"/>
<path d="M7.72234 13.2055C8.37773 13.2055 8.90903 12.6742 8.90903 12.0188C8.90903 11.3635 8.37773 10.8322 7.72234 10.8322C7.06695 10.8322 6.53564 11.3635 6.53564 12.0188C6.53564 12.6742 7.06695 13.2055 7.72234 13.2055Z" stroke="#7A7A7A" stroke-miterlimit="10" stroke-linecap="round" stroke-linejoin="round"/>
</svg>
